<svg width="390" height="258" viewBox="0 0 390 258" fill="none" xmlns="http://www.w3.org/2000/svg">
<path fill-rule="evenodd" clip-rule="evenodd" d="M0 7.39319L8.37792 33.9305C16.7558 60.4677 34.4851 110.859 50.847 131.93C67.2089 153.001 83.1769 142.069 100.02 120.453C115.889 101.52 131.595 69.2521 147.628 63.6538C164.668 58.0391 181.03 79.1103 197.556 113.516C214.115 150.589 231.877 203.647 247.976 203.383C264.076 203.118 279.518 149.515 296.164 111.897C311.837 76.9625 327.674 55.3626 343.576 39.0966C360.485 22.8141 376.453 11.882 384.437 6.41595L392.421 0.949888L395.506 251.643L387.457 251.775C379.407 251.907 363.308 252.171 346.202 252.452C330.103 252.716 314.004 252.981 297.904 253.245C280.799 253.526 264.699 253.79 248.6 254.055C232.501 254.319 215.395 254.6 199.296 254.864C183.197 255.129 167.097 255.393 149.992 255.674C133.893 255.938 117.793 256.202 101.694 256.467C84.5885 256.748 68.4892 257.012 52.3899 257.276C36.2905 257.541 19.185 257.822 11.1354 257.954L3.08574 258.086L0 7.39319Z" fill="url(#paint0_linear_1_77)"/>
<path fill-rule="evenodd" clip-rule="evenodd" d="M-0.635861 60.7999L7.96866 82.9482C16.5732 105.096 34.7959 147.148 51.6745 164.703C68.5531 182.258 85.1013 173.072 102.581 154.954C119.046 139.083 135.374 112.069 151.978 107.339C169.622 102.593 186.501 120.148 203.517 148.846C220.561 179.771 238.811 224.051 255.469 223.778C272.128 223.506 288.235 178.664 305.549 147.177C321.85 117.934 338.288 99.8342 354.781 86.191C372.315 72.5308 388.864 63.3445 397.138 58.7513L405.412 54.1582L408 263.633L399.671 263.769C391.342 263.905 374.683 264.178 356.984 264.467C340.325 264.74 323.667 265.012 307.009 265.285C289.309 265.574 272.651 265.847 255.992 266.119C239.334 266.392 221.635 266.681 204.976 266.954C188.318 267.226 171.659 267.499 153.96 267.788C137.302 268.061 120.643 268.333 103.985 268.605C86.2853 268.895 69.627 269.167 52.9686 269.44C36.3102 269.712 18.6107 270.002 10.2815 270.138L-4.5 258L-0.635861 60.7999Z" fill="#FFC107"/>
<defs>
<linearGradient id="paint0_linear_1_77" x1="163.623" y1="-16.1745" x2="293.319" y2="197.902" gradientUnits="userSpaceOnUse">
<stop stop-color="#FFC107"/>
<stop offset="1" stop-color="#D4ED8B" stop-opacity="0"/>
</linearGradient>
</defs>
</svg>
